{"title":"Nativity 2 Danger in the Manger 2012 BRRip 480p x264 AAC - VYTO ","uid":9234648,"size":381160006,"categoryP":"video","categoryS":"movies","magnet":"?xt=urn:btih:5657bb1f63a16b54fa491ddf3130d52988322f86&amp;dn=Nativity+2+Danger+in+the+Manger+2012+BRRip+480p+x264+AAC+-+VYTO+&amp;tr=udp%3A%2F%2Ftracker.openbittorrent.com%3A80&amp;tr=udp%3A%2F%2Fopen.demonii.com%3A1337&amp;tr=udp%3A%2F%2Ftracker.coppersurfer.tk%3A6969&amp;tr=udp%3A%2F%2Fexodus.desync.com%3A6969","seeders":1,"leechers":0,"uploader":"Vitamin_X","files":-1,"time":1385147676,"description":"_______ Visit us at our Semi Public Bittorrent Community ________\n  &lt;a href=&quot;\nhttp://p2pdl.com&quot; rel=&quot;nofollow&quot; target=&quot;_NEW&quot;&gt;\nhttp://p2pdl.com&lt;/a&gt;  _____________________________ &lt;a href=&quot; http://p2pdl.com&quot; rel=&quot;nofollow&quot; target=&quot;_NEW&quot;&gt; http://p2pdl.com&lt;/a&gt;\n\n\nNativity 2 Danger in the Manger 2012 BRRip 480p x264 AAC - VYTO\n\nGenre: Comedy\nPlot:\nA worried new teacher has to juggle a pregnant \nwife and a class of children on a road trip to \nthe National 'Song for Christmas' Competition.\n\nIMDb: &lt;a href=&quot;\nhttp://www.imdb.com/title/tt2089750/&quot; rel=&quot;nofollow&quot; target=&quot;_NEW&quot;&gt;\nhttp://www.imdb.com/title/tt2089750/&lt;/a&gt;\n\n\nGeneral\nFormat                         : MPEG-4\nFile size                      : 361 MiB\nDuration                       : 1h 49mn\nOverall bit rate mode          : Variable\nOverall bit rate               : 461 Kbps\n\nVideo\nFormat                         : AVC\nBit rate                       : 419 Kbps\nWidth                          : 720 pixels\nHeight                         : 400 pixels\nDisplay aspect ratio           : 16:9\nFrame rate mode                : Constant\nFrame rate                     : 24.000 fps\nBit depth                      : 10 bits\nStream size                    : 328 MiB (91%)\nWriting library                : x264 core 138 r2358 9e941d1\n\nAudio\nFormat                         : AAC\nBit rate                       : 40.0 Kbps\nChannel count                  : 2 channels\nChannel positions              : Front: L R\nSampling rate                  : 48.0 KHz / 24.0 KHz\nStream size                    : 31.3 MiB (9%)\nLanguage                       : English\n\n\nSubtitle                       : Yes (English)\n\nSource                         : LiMiTED.720p.BluRay.x264-ROVERS\n\nScreenshots:\n &lt;a href=&quot;\nhttp://ultraimg.com/images/gjYaD.png&quot; rel=&quot;nofollow&quot; target=&quot;_NEW&quot;&gt;\nhttp://ultraimg.com/images/gjYaD.png&lt;/a&gt; &lt;a href=&quot;\nhttp://ultraimg.com/images/F9zlA.png&quot; rel=&quot;nofollow&quot; target=&quot;_NEW&quot;&gt;\nhttp://ultraimg.com/images/F9zlA.png&lt;/a&gt; &lt;a href=&quot;\nhttp://ultraimg.com/images/l6sza.png&quot; rel=&quot;nofollow&quot; target=&quot;_NEW&quot;&gt;\nhttp://ultraimg.com/images/l6sza.png&lt;/a&gt; &lt;a href=&quot;\nhttp://ultraimg.com/images/9NVLm.png&quot; rel=&quot;nofollow&quot; target=&quot;_NEW&quot;&gt;\nhttp://ultraimg.com/images/9NVLm.png&lt;/a&gt; &lt;a href=&quot;\nhttp://ultraimg.com/images/Mhc6j.png&quot; rel=&quot;nofollow&quot; target=&quot;_NEW&quot;&gt;\nhttp://ultraimg.com/images/Mhc6j.png&lt;/a&gt;\n\n----------------------------------------------------------------------------------------------------\n\n\nEncoded using revolutionary 10bit encoding, which enables us to provide you more crispier \nand sharper images at small sizes, just make sure you follow our instructions without a fault.\nRecommend to you to use latest version of VLC player. Install K-Lite Codec Pack or shark007 codecs\nin case of any kind of problem in playback (For non-VLC Media Player users). Alternatively, install\nCore AVC codecs, the fastest decoder that there is coupled with Community Center Codec Pack and play\non Windows Media Player Classic. Check sample to be sure.\nEnjoy!\n\nEncoder Notes:Looking For Early Access To Anything You Can Provide DVDScr, R5, DVDR, BluRay, Direct\nAudio, Music Releases and Seedboxes. We require dedicated servers, so as to do more \nand fast releases of movies.\nIf You Got anything to offer please contact us at &quot;&lt;a class=&quot;__cf_email__&quot; href=&quot;/cdn-cgi/l/email-protection&quot; data-cfemail=&quot;3c4c4e5b7c54494f54125f5351&quot;&gt;[email&amp;#160;protected]&lt;/a&gt;&lt;script cf-hash='f9e31' type=&quot;text/javascript&quot;&gt;\n/* &lt;![CDATA[ */!function(){try{var t=&quot;currentScript&quot;in document?document.currentScript:function(){for(var t=document.getElementsByTagName(&quot;script&quot;),e=t.length;e--;)if(t[e].getAttribute(&quot;cf-hash&quot;))return t[e]}();if(t&amp;&amp;t.previousSibling){var e,r,n,i,c=t.previousSibling,a=c.getAttribute(&quot;data-cfemail&quot;);if(a){for(e=&quot;&quot;,r=parseInt(a.substr(0,2),16),n=2;a.length-n;n+=2)i=parseInt(a.substr(n,2),16)^r,e+=String.fromCharCode(i);e=document.createTextNode(e),c.parentNode.replaceChild(e,c)}}}catch(u){}}();/* ]]&gt; */&lt;/script&gt;&quot;.\n\nFacebook Fan Page:  \nSearch P2PDL on FB and don't forget to hit like!!!\n\nSupport us, please consider a donation.\n\nFor more of our team uploads visit @            &lt;a href=&quot;\nhttp://thepiratebay.se/user/varuttee&quot; rel=&quot;nofollow&quot; target=&quot;_NEW&quot;&gt;\nhttp://thepiratebay.se/user/varuttee&lt;/a&gt;\t","torrent":{"xt":"urn:btih:5657bb1f63a16b54fa491ddf3130d52988322f86","amp;dn":"Nativity+2+Danger+in+the+Manger+2012+BRRip+480p+x264+AAC+-+VYTO+","amp;tr":["udp%3A%2F%2Ftracker.openbittorrent.com%3A80","udp%3A%2F%2Fopen.demonii.com%3A1337","udp%3A%2F%2Ftracker.coppersurfer.tk%3A6969","udp%3A%2F%2Fexodus.desync.com%3A6969"],"infoHash":"5657bb1f63a16b54fa491ddf3130d52988322f86","infoHashBuffer":{"type":"Buffer","data":[86,87,187,31,99,161,107,84,250,73,29,223,49,48,213,41,136,50,47,134]},"announce":[],"urlList":[]}}